<?xml version="1.0" encoding="UTF-8" standalone="no"?>
<svg
   xmlns:dc="http://purl.org/dc/elements/1.1/"
   xmlns:cc="http://creativecommons.org/ns#"
   xmlns:rdf="http://www.w3.org/1999/02/22-rdf-syntax-ns#"
   xmlns:svg="http://www.w3.org/2000/svg"
   xmlns="http://www.w3.org/2000/svg"
   xmlns:sodipodi="http://sodipodi.sourceforge.net/DTD/sodipodi-0.dtd"
   xmlns:inkscape="http://www.inkscape.org/namespaces/inkscape"
   enable-background="new 0 0 64 64"
   height="512"
   id="HTML5"
   version="1.1"
   viewBox="0 0 512 512"
   width="512"
   xml:space="preserve"
   sodipodi:docname="css.svg"
   inkscape:version="0.92.2 5c3e80d, 2017-08-06"><metadata
     id="metadata119"><rdf:RDF><cc:Work
         rdf:about=""><dc:format>image/svg+xml</dc:format><dc:type
           rdf:resource="http://purl.org/dc/dcmitype/StillImage" /><dc:title></dc:title></cc:Work></rdf:RDF></metadata><defs
     id="defs117" /><sodipodi:namedview
     pagecolor="#ffffff"
     bordercolor="#666666"
     borderopacity="1"
     objecttolerance="10"
     gridtolerance="10"
     guidetolerance="10"
     inkscape:pageopacity="0"
     inkscape:pageshadow="2"
     inkscape:window-width="1920"
     inkscape:window-height="1028"
     id="namedview115"
     showgrid="false"
     inkscape:zoom="0.921875"
     inkscape:cx="-115.70044"
     inkscape:cy="212.22151"
     inkscape:window-x="0"
     inkscape:window-y="24"
     inkscape:window-maximized="1"
     inkscape:current-layer="HTML5"
     inkscape:snap-grids="true"
     inkscape:snap-to-guides="true" /><linearGradient
     gradientTransform="translate(-1096,-1454)"
     gradientUnits="userSpaceOnUse"
     id="Circle_Shadow_1_"
     x1="1160.0293"
     x2="1128.0292"
     y1="1517.999"
     y2="1485.999"><stop
       offset="0.3163"
       style="stop-color:#FFFFFF;stop-opacity:0"
       id="stop66" /><stop
       offset="0.3508"
       style="stop-color:#E9E9E9;stop-opacity:0.0504"
       id="stop68" /><stop
       offset="0.4543"
       style="stop-color:#ACACAC;stop-opacity:0.2018"
       id="stop70" /><stop
       offset="0.5572"
       style="stop-color:#787878;stop-opacity:0.3523"
       id="stop72" /><stop
       offset="0.6569"
       style="stop-color:#4D4D4D;stop-opacity:0.4981"
       id="stop74" /><stop
       offset="0.7528"
       style="stop-color:#2B2B2B;stop-opacity:0.6385"
       id="stop76" /><stop
       offset="0.8441"
       style="stop-color:#131313;stop-opacity:0.7719"
       id="stop78" /><stop
       offset="0.9286"
       style="stop-color:#050505;stop-opacity:0.8956"
       id="stop80" /><stop
       offset="1"
       style="stop-color:#000000"
       id="stop82" /></linearGradient><g
     id="g126"
     transform="matrix(10.581921,0,0,10.627119,-82.079096,-83.525427)"><circle
       style="fill:#f16529"
       r="24"
       id="Circle"
       cy="32"
       cx="32" /></g><path
     style="stroke-width:1.08474576;fill:#5599ff"
     d="M 225.66905,509.20943 C 196.70568,505.42701 170.56678,497.50682 145.00838,484.76891 116.393,470.50744 95.034202,454.81807 73.42998,432.19009 35.512298,392.4756 13.178617,345.36254 4.7989282,287.41239 2.8016382,273.60003 3.1334839,236.26093 5.3821798,221.78527 12.799179,174.03937 30.05454,133.78679 58.737108,97.321132 66.514739,87.433021 88.702532,65.24814 98.851357,57.21215 133.02583,30.152292 174.77269,11.907618 219.16058,4.6332952 c 16.855,-2.7622136 57.99245,-2.7622136 74.84745,0 72.12939,11.8206248 133.00032,50.7177228 173.472,110.8502348 14.43715,21.45059 28.9208,54.45845 35.22106,80.26784 18.20806,74.5904 1.98754,152.61554 -44.76296,215.32204 -9.87079,13.23971 -35.16496,38.53387 -48.40467,48.40467 -36.9611,27.55614 -77.9942,44.20384 -122.54388,49.71772 -16.22231,2.00782 -45.99959,2.01445 -61.32053,0.0137 z"
     id="path4102"
     inkscape:connector-curvature="0" /><g
     id="g4226"
     transform="matrix(0.625,0,0,0.57638089,99.796617,122.00582)"><g
       id="g4170"
       transform="matrix(1.138983,0,0,1.1583624,-41.654238,-43.363758)"><path
         id="path4168"
         d="m 76.194,24.26 -17.18,85.963 H 408.889 L 397.948,165.75 H 47.852 L 30.906,251.7 h 349.842 l -19.51,98.031 -141.005,46.711 -122.2,-46.711 8.364,-42.521 H 20.448 L 0,410.387 202.113,487.74 435.115,410.387 512,24.26 Z"
         inkscape:connector-curvature="0"
         style="fill:#fdfcfc" /></g><g
       id="g4172" /><g
       id="g4174" /><g
       id="g4176" /><g
       id="g4178" /><g
       id="g4180" /><g
       id="g4182" /><g
       id="g4184" /><g
       id="g4186" /><g
       id="g4188" /><g
       id="g4190" /><g
       id="g4192" /><g
       id="g4194" /><g
       id="g4196" /><g
       id="g4198" /><g
       id="g4200" /></g><path
     style="fill:#ffffff;stroke-width:1.08474576"
     d="M 145.54687,396.41317 C 106.84916,382.4662 74.99944,370.86708 74.769715,370.63735 c -0.229725,-0.22973 2.754071,-15.42018 6.630658,-33.75657 3.876586,-18.33639 7.04834,-33.55108 7.04834,-33.81042 0,-0.25934 13.603657,-0.47153 30.230347,-0.47153 h 30.23034 l -2.78548,13.56011 c -1.74514,8.49562 -2.4009,13.92189 -1.75577,14.52875 0.56634,0.53274 20.18877,7.82834 43.60539,16.21246 l 42.57567,15.24385 49.94162,-15.53282 c 27.46788,-8.54304 50.16805,-15.75925 50.44481,-16.03601 0.27678,-0.27676 3.5968,-15.10501 7.37785,-32.95164 l 6.87464,-32.44843 -124.3909,-0.54237 -124.390904,-0.54238 4.676494,-22.23728 c 2.57207,-12.23051 5.20944,-24.8 5.86081,-27.93221 l 1.18432,-5.69491 h 124.66886 c 68.56786,0 124.66885,-0.1916 124.66885,-0.42577 0,-0.23417 1.70848,-8.41011 3.79661,-18.16877 2.08814,-9.75865 3.79661,-18.10943 3.79661,-18.55728 0,-0.44786 -55.89152,-0.81428 -124.20339,-0.81428 -98.66594,0 -124.19321,-0.2788 -124.1539,-1.35594 0.0272,-0.74576 2.61708,-13.31525 5.75524,-27.9322 l 5.70576,-26.57627 154.86141,-0.27489 c 147.16404,-0.26123 154.83375,-0.18036 154.30527,1.62711 -0.30587,1.04611 -12.60028,58.76981 -27.32091,128.2749 -14.72062,69.50508 -26.82921,126.45253 -26.90798,126.54989 -0.44818,0.55401 -164.66841,51.33549 -165.81179,51.27364 -0.76024,-0.0411 -33.04402,-11.48594 -71.74172,-25.43292 z"
     id="path5033"
     inkscape:connector-curvature="0" /><path
     style="fill:#ffffff;stroke-width:1.08474576"
     d="m 202.88939,417.03465 c -7.15932,-2.60813 -38.80833,-14.00776 -70.33114,-25.3325 -31.5228,-11.32475 -57.524652,-20.80093 -57.781894,-21.05816 -0.257242,-0.25725 2.713803,-15.51639 6.602322,-33.90922 3.888519,-18.39284 7.070035,-33.59777 7.070035,-33.78872 0,-0.19097 13.700687,-0.34722 30.445977,-0.34722 28.49896,0 30.40805,0.12139 29.85286,1.8983 -0.90792,2.90582 -4.9768,23.10189 -4.9768,24.70254 0,1.63529 2.44692,2.59686 50.72821,19.93485 l 36.08415,12.95796 49.97957,-15.56195 c 27.48876,-8.55907 50.13312,-15.72141 50.32081,-15.91632 0.58876,-0.61138 13.56522,-61.76228 13.56522,-63.92538 0,-2.00635 -3.0076,-2.0561 -124.27649,-2.0561 -117.85612,0 -124.24655,-0.0981 -123.69707,-1.89831 0.530334,-1.7375 11.49899,-53.41613 11.49899,-54.17728 0,-0.18216 56.13559,-0.33119 124.74576,-0.33119 68.61017,0 124.74576,-0.19985 124.74576,-0.44412 0,-0.24426 1.70848,-8.55258 3.79661,-18.46292 2.08814,-9.91035 3.79661,-18.25287 3.79661,-18.53894 0,-0.28607 -55.89152,-0.52012 -124.20339,-0.52012 -98.65849,0 -124.19608,-0.27888 -124.16787,-1.35594 0.0195,-0.74576 2.58288,-13.31525 5.69631,-27.9322 l 5.6608,-26.57627 154.86766,-0.27489 154.86765,-0.27489 -0.57216,2.44438 c -1.38796,5.92976 -53.70832,252.96418 -53.70832,253.58783 0,0.38277 -1.58644,1.2009 -3.52542,1.81807 -36.46833,11.60776 -161.66986,50.20558 -162.68306,50.15284 -0.76161,-0.0396 -7.24237,-2.206 -14.40169,-4.81413 z"
     id="path5035"
     inkscape:connector-curvature="0" /><path
     style="fill:#2c5aa0;stroke-width:1.08474576"
     d="M 220.55212,508.08106 C 139.78914,495.96026 67.577172,443.95065 31.416645,371.859 0.32927097,309.88148 -4.6771693,242.06036 16.975344,176.22595 29.987452,136.66266 48.97382,106.27318 79.663904,75.886965 108.9487,46.892131 138.95582,28.444548 178.1507,15.339896 208.04526,5.3447708 227.78807,2.6732799 265.26227,3.5524266 c 28.1557,0.660534 39.6055,2.4223078 64.16161,9.8725004 71.12346,21.578489 129.10447,73.396759 158.63936,141.777733 15.77684,36.52755 22.20849,70.13618 20.94148,109.43007 -2.26177,70.14504 -31.98274,133.88368 -84.58033,181.38825 -35.17336,31.76753 -76.53783,51.82165 -126.07737,61.1242 -13.70395,2.57333 -62.93775,3.16562 -77.7949,0.93588 z M 300.96684,397.15715 383.85786,371.33647 410.7672,244.49308 C 425.56735,174.7292 437.94348,116.55137 438.26974,115.209 l 0.59318,-2.44068 H 283.18124 c -85.62493,0 -155.68168,0.19161 -155.68168,0.42581 0,0.23418 -2.68475,13.00019 -5.9661,28.36889 -3.28136,15.3687 -5.9661,28.35675 -5.9661,28.86233 0,0.50558 55.89152,0.91924 124.20339,0.91924 98.67381,0 124.19018,0.27871 124.13915,1.35593 -0.0354,0.74577 -1.6447,8.67797 -3.57638,17.62712 l -3.51213,16.27119 -124.69346,0.54237 -124.69345,0.54237 -5.66076,26.57628 c -3.113412,14.61695 -5.676735,27.67457 -5.696269,29.01695 l -0.03552,2.44067 H 219.70295 343.36397 l -0.0344,2.44068 c -0.0381,2.7053 -12.46293,61.43654 -13.11496,61.99361 -0.22547,0.19264 -22.73877,7.27368 -50.02957,15.73564 l -49.6196,15.38538 -42.85497,-15.39063 c -38.00429,-13.6486 -42.85434,-15.64931 -42.84936,-17.67597 0.003,-1.25692 1.17286,-7.78424 2.59951,-14.50516 l 2.5939,-12.21984 -31.07409,0.28763 -31.0741,0.28765 -7.263994,34.16949 c -5.491003,25.82942 -6.944348,34.39295 -5.954396,35.08501 1.396166,0.97604 140.47036,51.3585 142.30314,51.55221 0.59661,0.063 38.3857,-11.50466 83.97575,-25.70602 z"
     id="path5037"
     inkscape:connector-curvature="0" /><path
     style="fill:#2c5aa0;stroke-width:1.08474576"
     d=""
     id="path5039"
     inkscape:connector-curvature="0" /><path
     style="fill:#2c5aa0;stroke-width:1.08474576"
     d=""
     id="path5041"
     inkscape:connector-curvature="0" /><path
     style="fill:#2c5aa0;stroke-width:1.08474576"
     d=""
     id="path5043"
     inkscape:connector-curvature="0" /><path
     style="fill:#2c5aa0;stroke-width:1.08474576"
     d=""
     id="path5045"
     inkscape:connector-curvature="0" /></svg>