<svg width="512" height="512" xmlns="http://www.w3.org/2000/svg">
 <!-- Created with Method Draw - http://github.com/duopixel/Method-Draw/ -->

 <g>
  <title>background</title>
  <rect fill="#fff" id="canvas_background" height="514" width="514" y="-1" x="-1"/>
  <g display="none" overflow="visible" y="0" x="0" height="100%" width="100%" id="canvasGrid">
   <rect fill="url(#gridpattern)" stroke-width="0" y="0" x="0" height="100%" width="100%"/>
  </g>
 </g>
 <g>
  <title>Layer 1</title>
  <g stroke="null" id="svg_15">
   <g stroke="null" transform="matrix(5.095069088936382,0,0,5.095069009554795,-7.391219285921128,2.000009885193606) " id="svg_7">
    <g stroke="null" id="svg_8">
     <g stroke="null" id="svg_9">
      <circle stroke="null" id="svg_10" fill="#F0DB4F" r="50" cy="49.999996" cx="51.843196"/>
     </g>
    </g>
    <g stroke="null" id="svg_5">
     <g stroke="null" id="svg_11">
      <g stroke="null" id="svg_12">
       <path stroke="null" id="svg_13" fill="#323330" d="m36.243196,30.599996l8.7,0l0,24.5c0,11 -5.3,14.9 -13.7,14.9c-2.1,0 -4.7,-0.3 -6.4,-0.9l1,-7.1c1.2,0.4 2.8,0.7 4.5,0.7c3.7,0 6,-1.7 6,-7.6l-0.1,-24.5l0,0z"/>
       <path stroke="null" id="svg_14" fill="#323330" d="m52.643196,60.399996c2.3,1.2 6,2.4 9.7,2.4c4,0 6.1,-1.7 6.1,-4.3c0,-2.4 -1.8,-3.8 -6.5,-5.4c-6.4,-2.3 -10.7,-5.9 -10.7,-11.6c0,-6.5 5.6,-11.5 14.7,-11.5c4.4,0 7.6,0.9 9.9,2l-2,7c-1.5,-0.7 -4.3,-1.8 -8,-1.8c-3.8,0 -5.6,1.8 -5.6,3.7c0,2.5 2.1,3.6 7.2,5.5c6.8,2.5 10,6.1 10,11.6c0,6.5 -4.9,12 -15.6,12c-4.4,0 -8.8,-1.2 -11,-2.4l1.8,-7.2z"/>
      </g>
     </g>
    </g>
   </g>
  </g>
 </g>
</svg>