<svg width="512" height="512" xmlns="http://www.w3.org/2000/svg">

 <g>
  <title>background</title>
  <rect fill="none" id="canvas_background" height="514" width="514" y="-1" x="-1"/>
 </g>
 <g>
  <title>Layer 1</title>
  <ellipse stroke="null" ry="255.662244" rx="255.337753" id="svg_13" cy="256.311242" cx="255.25322" fill-opacity="null" stroke-opacity="null" stroke-width="null" fill="#3765af"/>
  <path fill="#ffffff" id="svg_5" d="m459.835814,225.873512c-0.7,-0.7 -1.5,-1.3 -2.1,-2.1c-2.1,-2.8 -4.7,-5.4 -7.5,-7.4c-2.3,-1.6 -7.5,-3.8 -8.3,-6.5c0,0 0,0 -0.2,-0.2c1.6,-0.2 3.4,-0.7 5.1,-1.1c2.5,-0.7 4.7,-0.5 7.4,-1.1c1.1,-0.3 2.3,-0.7 3.4,-1c0,-0.2 0,-0.5 0,-0.7c-1.3,-1.3 -2.3,-3.1 -3.6,-4.3c-3.8,-3.3 -7.9,-6.4 -12.1,-9c-2.3,-1.5 -5.2,-2.5 -7.5,-3.6c-0.8,-0.5 -2.3,-0.7 -2.8,-1.3c-1.3,-1.6 -2.1,-3.8 -2.9,-5.6c-2.1,-4.1 -4.1,-8.5 -6.1,-12.8c-1.3,-2.8 -2.1,-5.7 -3.8,-8.3c-7.5,-12.4 -15.7,-20 -28.3,-27.3c-2.8,-1.5 -5.9,-2.1 -9.3,-2.9c-1.8,0 -3.6,-0.2 -5.4,-0.3c-1.1,-0.5 -2.3,-2 -3.4,-2.6c-4.1,-2.6 -14.9,-8.3 -18,-0.8c-2,4.7 2.9,9.5 4.6,11.8c1.3,1.6 2.8,3.6 3.8,5.4c0.5,1.3 0.7,2.6 1.1,3.9c1.1,3.3 2.3,6.7 3.8,9.8c0.8,1.5 1.6,3.1 2.8,4.6c0.7,0.8 1.6,1.1 1.8,2.5c-1,1.5 -1.1,3.6 -1.6,5.4c-2.6,8.2 -1.6,18.5 2.1,24.5c1.1,1.8 3.9,5.9 7.7,4.3c3.3,-1.3 2.6,-5.4 3.4,-9.2c0.2,-0.8 0,-1.5 0.5,-2l0,0.2c1,2 2,4.1 2.9,6.1c2.3,3.6 6.2,7.4 9.5,9.8c1.8,1.3 3.1,3.6 5.4,4.4l0,-0.2c0,0 0,0 -0.2,0c-0.5,-0.7 -1.1,-1 -1.6,-1.5c-1.3,-1.3 -2.8,-2.9 -3.8,-4.4c-3.1,-4.1 -5.7,-8.7 -8.2,-13.3c-1.1,-2.3 -2.1,-4.7 -3.1,-7c-0.5,-0.8 -0.5,-2.1 -1.1,-2.6c-1.1,1.6 -2.8,2.9 -3.4,4.9c-1.3,3.1 -1.5,7 -2,11c-0.3,0 -0.2,0 -0.3,0.2c-2.3,-0.7 -3.1,-2.9 -4.1,-5.1c-2.1,-5.2 -2.6,-13.6 -0.7,-19.5c0.5,-1.5 2.8,-6.4 1.8,-7.9c-0.5,-1.3 -2,-2.1 -2.8,-3.3c-1,-1.3 -2,-3.1 -2.6,-4.7c-1.8,-4.1 -2.6,-8.7 -4.6,-12.8c-0.8,-2 -2.5,-3.9 -3.6,-5.6c-1.3,-2 -2.9,-3.4 -4.1,-5.7c-0.3,-0.8 -0.8,-2.1 -0.3,-2.9c0.2,-0.7 0.5,-0.8 1,-1c1,-0.8 3.6,0.2 4.6,0.7c2.8,1.1 4.9,2.1 7.2,3.6c1,0.7 2.1,2.1 3.4,2.5c0.5,0 1,0 1.5,0c2.3,0.5 4.9,0.2 7.2,0.8c3.9,1.3 7.4,3.1 10.5,5.1c9.5,6.1 17.5,14.7 22.7,25c0.8,1.6 1.3,3.3 2,4.9c1.5,3.6 3.4,7.2 4.9,10.8c1.5,3.4 2.9,6.9 5.2,9.8c1.1,1.5 5.4,2.3 7.5,3.1c1.5,0.7 3.8,1.3 5.1,2c2.5,1.5 4.9,3.3 7.4,4.9c0.9,0.9 4.7,2.7 4.9,4.2c-5.9,-0.2 -10.3,0.5 -14.2,2c-1.1,0.5 -2.8,0.5 -2.9,1.8c0.7,0.7 0.7,1.5 1.1,2.3c0.8,1.5 2.5,3.4 3.8,4.4c1.5,1.1 3.1,2.3 4.7,3.4c2.8,1.8 6.1,2.8 8.8,4.6c1.6,1 3.3,2.3 4.7,3.4c0.8,0.7 1.3,1.5 2.3,2l0,-0.2c-0.5,-0.7 -0.7,-1.6 -1.1,-2.3z" class="st1"/>
  <path stroke="null" fill="#ffffff" id="svg_6" d="m377.222568,141.531946c0,0 0,0 0,0.238956c0,0 0,0 0.268509,0c0.939781,1.314258 2.148072,2.38956 3.087853,3.464862c0.939781,1.314258 1.476799,2.747994 2.148072,4.062252l0.268509,-0.238956c1.342545,-0.836346 2.013817,-2.38956 2.013817,-4.301208c-0.671272,-0.59739 -0.671272,-1.19478 -1.074036,-1.79217c-0.805527,-0.836346 -2.148072,-1.19478 -2.819344,-1.79217c-1.745308,0 -2.819344,0.238956 -3.89338,0.358434z" class="st1"/>
  <text stroke="null" transform="matrix(5.651137828826904,0,0,1.323805568135647,-847.222824668941,-138.5101294224501) " xml:space="preserve" text-anchor="start" font-family="Helvetica, Arial, sans-serif" font-size="24" id="svg_15" y="230.172164" x="184.145661" fill-opacity="null" stroke-opacity="null" stroke-width="0" fill="#000000"/>
  <text stroke="null" transform="matrix(4.73388103128431,0,0,5.135678439103146,-601.9010469944739,-465.49416231441677) " font-weight="bold" xml:space="preserve" text-anchor="start" font-family="Junction, sans-serif" font-size="24" id="svg_16" y="150.826647" x="139.289928" stroke-opacity="null" stroke-width="0" fill="#ffffff">MySQL</text>
 </g>
</svg>