<?xml version="1.0" encoding="UTF-8" standalone="no"?>
<svg
   xmlns:dc="http://purl.org/dc/elements/1.1/"
   xmlns:cc="http://creativecommons.org/ns#"
   xmlns:rdf="http://www.w3.org/1999/02/22-rdf-syntax-ns#"
   xmlns:svg="http://www.w3.org/2000/svg"
   xmlns="http://www.w3.org/2000/svg"
   xmlns:sodipodi="http://sodipodi.sourceforge.net/DTD/sodipodi-0.dtd"
   xmlns:inkscape="http://www.inkscape.org/namespaces/inkscape"
   width="512"
   height="504"
   version="1.1"
   id="svg15"
   sodipodi:docname="iconfinder-icon (5).svg"
   inkscape:version="0.92.2 5c3e80d, 2017-08-06">
  <metadata
     id="metadata21">
    <rdf:RDF>
      <cc:Work
         rdf:about="">
        <dc:format>image/svg+xml</dc:format>
        <dc:type
           rdf:resource="http://purl.org/dc/dcmitype/StillImage" />
      </cc:Work>
    </rdf:RDF>
  </metadata>
  <defs
     id="defs19" />
  <sodipodi:namedview
     pagecolor="#ffffff"
     bordercolor="#666666"
     borderopacity="1"
     objecttolerance="10"
     gridtolerance="10"
     guidetolerance="10"
     inkscape:pageopacity="0"
     inkscape:pageshadow="2"
     inkscape:window-width="1920"
     inkscape:window-height="1028"
     id="namedview17"
     showgrid="false"
     inkscape:zoom="0.46825397"
     inkscape:cx="21.084746"
     inkscape:cy="252"
     inkscape:window-x="0"
     inkscape:window-y="24"
     inkscape:window-maximized="1"
     inkscape:current-layer="svg15" />
  <g
     id="g5">
    <title
       id="title2">background</title>
    <rect
       fill="none"
       id="canvas_background"
       height="506"
       width="514"
       y="-1"
       x="-1" />
  </g>
  <g
     id="g13"
     transform="translate(0,2.1355932)">
    <title
       id="title7">Layer 1</title>
    <ellipse
       stroke="null"
       ry="251.16902"
       rx="254.1906"
       id="svg_7"
       cy="251.62231"
       cx="256.7554"
       fill-opacity="null"
       stroke-opacity="null"
       stroke-width="null"
       style="fill:#3765af" />
    <path
       stroke="null"
       id="svg_4"
       d="m 180.0554,221.21749 c 7.9,0 12.8,1.53156 15.4,5.06592 2.6,3.06312 2.9,9.30716 1.6,16.96495 -1.3,8.48247 -3.9,14.6087 -8.2,18.14306 -3.9,3.41655 -10.1,5.41936 -18.3,5.41936 h -12.4 l 7.5,-46.30016 c 0,0.70687 14.4,0.70687 14.4,0.70687 z m -49.7,92.48251 h 20.3 l 4.6,-29.33522 h 17.7 c 7.9,0 13.7,-0.82468 19,-2.70968 4.9,-1.88499 9.5,-5.06592 13.4,-9.66059 3.3,-3.41655 6.2,-8.12904 8.5,-12.37027 2,-4.24124 3.6,-9.66059 4.3,-14.6087 2,-13.07715 0.7,-23.09118 -4.6,-30.39553 -5.2,-7.30435 -13.7,-10.83871 -25.5,-10.83871 h -39.3 z"
       inkscape:connector-curvature="0"
       style="fill:#ffffff" />
    <path
       stroke="null"
       id="svg_5"
       d="m 235.16175,167.65036 h 21.45224 l -4.8611,32.31157 h 19.0217 c 11.73004,0 20.39548,2.59531 24.51685,8.04545 4.54407,5.06085 6.23488,13.62536 3.80433,25.04471 L 290.11331,289.5 h -21.76927 l 8.66543,-53.46331 c 1.05676,-5.96921 0.73974,-10.25146 -1.05676,-12.32771 -1.69081,-2.07624 -5.17813,-3.37389 -10.67328,-3.37389 H 248.37126 L 237.27527,289.5 h -21.45225 l 19.33873,-121.84963 z"
       inkscape:connector-curvature="0"
       style="fill:#ffffff" />
    <path
       stroke="null"
       id="svg_6"
       d="m 344.71079,221.33732 c 7.9,0 12.8,1.54208 15.4,5.10073 2.6,3.08417 2.9,9.37112 1.6,17.08153 -1.3,8.54077 -3.9,14.7091 -8.2,18.26775 -3.9,3.44003 -10.1,5.4566 -18.3,5.4566 h -12.4 l 7.5,-46.61834 c 0.4,0.71173 14.4,0.71173 14.4,0.71173 z m -49.4,93.11807 h 20.3 l 4.6,-29.53681 h 17.7 c 7.9,0 13.7,-0.83036 19,-2.7283 4.9,-1.89795 9.5,-5.10074 13.4,-9.72699 3.3,-3.44003 6.2,-8.1849 8.5,-12.45528 2,-4.27039 3.6,-9.72699 4.3,-14.7091 2,-13.16701 0.7,-23.24986 -4.6,-30.60441 -5.2,-7.35455 -13.7,-10.9132 -25.5,-10.9132 h -39.3 l -18.4,110.67409 z"
       inkscape:connector-curvature="0"
       style="fill:#ffffff" />
  </g>
</svg>
