<svg width="512" height="512" xmlns="http://www.w3.org/2000/svg">
 <!-- Created with Method Draw - http://github.com/duopixel/Method-Draw/ -->

 <g>
  <title>background</title>
  <rect fill="#fff" id="canvas_background" height="514" width="514" y="-1" x="-1"/>
  <g display="none" overflow="visible" y="0" x="0" height="100%" width="100%" id="canvasGrid">
   <rect fill="url(#gridpattern)" stroke-width="0" y="0" x="0" height="100%" width="100%"/>
  </g>
 </g>
 <g>
  <title>Layer 1</title>
  <style transform="matrix(1.0850693616602172,0,0,1.0850693616602172,0,0) " type="text/css">.st0{fill:#CC6699;}
	.st1{fill:#FFFFFF;}</style>
  <g stroke="null" id="svg_11">
   <g stroke="null" transform="matrix(5.105069675955862,0,0,5.075069372039121,-540.154829817717,-431.89070984674515) " id="svg_5">
    <g stroke="null" id="svg_6">
     <g stroke="null" id="svg_7">
      <g stroke="null" id="svg_8">
       <circle stroke="null" stroke-width="3" id="svg_9" r="50" cy="135.641636" cx="155.953758" class="st0"/>
      </g>
     </g>
    </g>
   </g>
   <path stroke="null" stroke-width="3" id="svg_10" d="m393.32633,143.833481c-3.063042,-12.180166 -11.74166,-22.330305 -25.014841,-29.435402c-26.035855,-13.702687 -67.897427,-14.210194 -106.185449,-0.507507c-22.972814,8.120111 -66.365906,26.390361 -99.038352,56.33327c-32.672446,30.450416 -37.777516,57.348284 -35.224981,68.00593c5.615577,29.435402 36.756502,50.243187 61.260836,67.498423c6.636591,4.567562 12.762674,8.627618 17.357237,12.687673c-13.783688,7.105097 -51.050697,27.912882 -61.260836,49.73568c-7.657605,17.255236 -4.084056,29.942909 -1.021014,35.525486c3.063042,6.59759 8.168111,11.67266 13.273181,13.19518c5.10507,1.522521 10.720646,2.030028 16.336223,2.030028c21.9518,0 43.393092,-11.67266 56.666273,-31.46543c13.273181,-19.792771 14.294195,-46.183131 8.168111,-62.423353c8.678618,-2.030028 17.867744,-2.030028 28.077883,-1.015014c19.909772,2.537535 29.609404,10.150139 34.203967,16.240222c5.10507,6.59759 6.126084,13.19518 5.615577,17.255236c-1.021014,7.612604 -7.147098,12.180166 -10.210139,14.210194c-2.552535,1.522521 -4.594563,3.045042 -4.084056,6.090083c1.021014,4.060055 5.10507,3.552549 6.636591,3.552549c4.594563,-1.015014 20.930786,-9.135125 21.9518,-27.405375c0.510507,-11.165153 -4.084056,-22.330305 -12.762674,-31.46543c-11.231153,-11.67266 -28.077883,-17.762743 -47.477148,-17.255236c-14.294195,0 -23.993827,1.522521 -31.651432,4.060055c0,0 -0.510507,-0.507507 -0.510507,-0.507507c-7.147098,-7.612604 -16.84673,-14.717701 -25.525348,-21.822798c-20.420279,-15.225208 -39.309037,-29.942909 -38.288023,-51.765708c1.531521,-27.405375 28.58839,-54.303242 81.170608,-80.186096c46.456134,-22.837812 84.23365,-23.852826 104.143421,-16.747729c8.168111,3.045042 13.783688,7.105097 15.825716,11.67266c4.084056,8.627618 2.552535,19.792771 -4.594563,31.972937c-11.74166,20.300277 -41.351064,45.675624 -86.786184,50.750694c-27.567376,3.045042 -39.309037,-9.135125 -39.819543,-9.642632c-3.063042,-3.552549 -5.10507,-5.582576 -8.678618,-3.552549c-4.084056,2.030028 -2.042028,7.612604 -1.021014,9.642632c2.042028,5.582576 10.720646,15.225208 25.525348,20.300277c11.74166,4.060055 41.861571,6.59759 79.12858,-7.612604c42.882585,-17.255236 72.491989,-62.93086 63.813371,-97.948839zm-176.124904,216.197955c-0.510507,1.015014 -0.510507,2.030028 -1.021014,3.045042c-0.510507,1.015014 -1.021014,2.030028 -1.021014,3.045042c-2.042028,4.567562 -5.10507,9.135125 -9.189125,13.19518c-11.74166,12.687673 -27.567376,16.240222 -32.672446,13.19518c-1.531521,-1.015014 -2.042028,-2.537535 -2.552535,-4.567562c-1.021014,-6.090083 2.552535,-18.27025 13.273181,-28.927895c12.762674,-13.19518 30.630418,-22.837812 34.714474,-24.86784c1.531521,9.135125 1.021014,17.762743 -1.531521,25.882854z" class="st1"/>
  </g>
 </g>
</svg>