<svg width="512" height="512" xmlns="http://www.w3.org/2000/svg">

 <g>
  <title>background</title>
  <rect fill="none" id="canvas_background" height="514" width="514" y="-1" x="-1"/>
 </g>
 <g>
  <title>Layer 1</title>
  <ellipse stroke="null" ry="255.119012" rx="254.718525" id="svg_2" cy="256.400485" cx="256.400503" stroke-opacity="null" stroke-width="null" fill="#56aaff"/>
  <path stroke="null" fill="#fcfcfc" id="svg_1" d="m257.604282,101.125142c0,0 0,0 0,0l-122.421593,55.339364c0,0 -2.110717,0 -2.110717,0c-2.110717,0 -2.110717,2.213575 -2.110717,2.213575c0,0 0,0 0,0c0,0 0,0 0,2.213575c0,0 0,0 0,0c0,0 0,2.213575 0,2.213575c0,0 0,0 0,0l8.442868,126.173749c0,2.213575 0,4.427149 2.110717,4.427149l46.435777,35.417193c0,4.427149 -2.110717,8.854298 -2.110717,11.067873c-2.110717,39.844342 31.660757,70.834385 73.875099,70.834385s73.875099,-30.990044 73.875099,-68.620811c0,-4.427149 0,-6.640724 -2.110717,-11.067873l46.435777,-35.417193c2.110717,-2.213575 2.110717,-2.213575 2.110717,-4.427149l8.442868,-126.173749l0,0c0,0 0,0 0,-2.213575c0,0 0,0 0,0c0,0 0,0 0,0c0,0 0,0 0,0c0,0 0,-2.213575 0,-2.213575c0,0 0,0 0,0c0,0 0,0 0,0c0,0 0,0 0,0c0,0 0,0 0,0c0,0 0,0 -2.110717,0l-2.110717,0l-122.421593,-57.552938c-2.110717,-2.213575 -2.110717,-2.213575 -4.221434,-2.213575zm2.110717,13.281447l109.75729,48.69864l-109.75729,66.407236l-109.75729,-64.193662l109.75729,-50.912214zm0,17.708596l-18.996454,8.854298l6.332151,4.427149c0,0 2.110717,2.213575 2.110717,2.213575c0,0 0,2.213575 0,2.213575l-12.664303,11.067873l27.439323,-11.067873c2.110717,0 2.110717,0 4.221434,0s0,2.213575 0,4.427149l-8.442868,11.067873l12.664303,-4.427149c2.110717,0 2.110717,0 4.221434,0c0,0 0,2.213575 0,4.427149l-8.442868,15.495022l18.996454,13.281447l44.325059,-26.562894l-71.764382,-35.417193zm-27.439323,11.067873l-48.546494,22.135745l73.875099,44.271491l23.217888,-13.281447l-16.885737,-13.281447c-2.110717,0 -2.110717,-2.213575 -2.110717,-4.427149l6.332151,-11.067873l-16.885737,6.640724c-2.110717,0 -2.110717,0 -4.221434,-2.213575c0,-2.213575 0,-2.213575 0,-4.427149l8.442868,-8.854298l-31.660757,15.495022c-2.110717,0 -2.110717,0 -4.221434,-2.213575c0,-2.213575 0,-2.213575 0,-4.427149l18.996454,-19.922171l-6.332151,-4.427149zm-88.650119,30.990044l109.75729,66.407236l0,126.173749l-103.425139,-79.688683l-6.332151,-112.892302zm232.178883,0l-6.332151,112.892302l-105.535856,79.688683l0,-126.173749l111.868007,-66.407236zm-18.996454,28.776469l-75.985816,48.69864l-2.110717,81.902258l71.764382,-53.125789l6.332151,-77.475109zm-196.296692,2.213575l4.221434,73.04796l69.653665,53.125789l-2.110717,-77.475109l-71.764382,-48.69864z" class="st0"/>
 </g>
</svg>