<svg width="512" height="512" xmlns="http://www.w3.org/2000/svg">

 <g>
  <title>background</title>
  <rect fill="none" id="canvas_background" height="514" width="514" y="-1" x="-1"/>
 </g>
 <g>
  <title>Layer 1</title>
  <circle stroke="null" id="svg_1" r="255.346405" fill="#21759B" cy="256.51231" cx="258.312642"/>
  <path stroke="null" id="svg_2" fill="#FFFFFF" d="m260.693058,402.95674c-83.371417,0 -151.069135,-65.293163 -150.440378,-147.828043c0.628757,-82.534879 63.936482,-147.828043 150.440378,-147.828043c86.508419,0 150.440378,66.522175 150.440378,147.828043s-67.06896,147.828043 -150.440378,147.828043zm44.503808,-22.791157l-42.62206,-112.720105l-40.1206,115.184794c29.465651,6.780675 49.522559,8.62308 82.74266,-2.46469l0,0zm-104.050297,-6.156168l-63.938744,-171.850433c-8.779986,18.479617 -10.654949,33.878927 -11.912464,52.969715c0.628757,50.505025 29.461128,96.700733 75.851208,118.880718zm194.319952,-118.880718c0.621972,-32.643248 -14.416185,-58.512489 -15.6737,-62.208412c1.257515,25.258069 -2.508244,38.188244 -6.893714,52.358543l-43.879574,123.805652c55.163281,-32.649915 65.811445,-81.312535 67.06896,-113.955783l-0.621972,0l0,0zm-139.156671,-5.542774l-21.314422,-57.283478l-15.6737,-1.229011c-6.264956,-4.313763 -2.508244,-11.08777 1.879487,-11.08777c28.208136,1.84685 43.875051,1.84685 72.087711,0c6.898237,0 8.773201,9.856536 0.621972,11.08777l-15.044942,1.229011l48.887016,141.66743l23.189386,-77.609945c1.257515,-33.874482 -8.151229,-37.568183 -20.685665,-62.208412c-10.030716,-19.097456 0.628757,-37.57485 20.063693,-38.188244c-15.678223,-14.783693 -47.64081,-33.261087 -89.640897,-33.878927s-86.503896,20.326467 -112.830283,59.75039l46.39008,-1.229011c5.640723,2.46469 3.132478,10.469931 0,11.08777l-16.295672,1.229011l48.893801,144.132119l29.472436,-87.468703l0,0z"/>
 </g>
</svg>