<?xml version="1.0" encoding="UTF-8" standalone="no"?>
<svg
   xmlns:dc="http://purl.org/dc/elements/1.1/"
   xmlns:cc="http://creativecommons.org/ns#"
   xmlns:rdf="http://www.w3.org/1999/02/22-rdf-syntax-ns#"
   xmlns:svg="http://www.w3.org/2000/svg"
   xmlns="http://www.w3.org/2000/svg"
   xmlns:sodipodi="http://sodipodi.sourceforge.net/DTD/sodipodi-0.dtd"
   xmlns:inkscape="http://www.inkscape.org/namespaces/inkscape"
   version="1.1"
   viewBox="0 0 24 24"
   enable-background="new 0 0 24 24"
   width="512px"
   height="512px"
   class=""
   id="svg12"
   sodipodi:docname="menu2.svg"
   inkscape:version="0.92.2 5c3e80d, 2017-08-06">
  <metadata
     id="metadata18">
    <rdf:RDF>
      <cc:Work
         rdf:about="">
        <dc:format>image/svg+xml</dc:format>
        <dc:type
           rdf:resource="http://purl.org/dc/dcmitype/StillImage" />
        <dc:title></dc:title>
      </cc:Work>
    </rdf:RDF>
  </metadata>
  <defs
     id="defs16" />
  <sodipodi:namedview
     pagecolor="#ffffff"
     bordercolor="#666666"
     borderopacity="1"
     objecttolerance="10"
     gridtolerance="10"
     guidetolerance="10"
     inkscape:pageopacity="0"
     inkscape:pageshadow="2"
     inkscape:window-width="1920"
     inkscape:window-height="1028"
     id="namedview14"
     showgrid="false"
     inkscape:zoom="2.6074562"
     inkscape:cx="131.95724"
     inkscape:cy="285.19796"
     inkscape:window-x="0"
     inkscape:window-y="24"
     inkscape:window-maximized="1"
     inkscape:current-layer="svg12" />
  <g
     id="g10">
    <g
       id="g8">
      <path
         d="M24,3c0-0.6-0.4-1-1-1H1C0.4,2,0,2.4,0,3v2c0,0.6,0.4,1,1,1h22c0.6,0,1-0.4,1-1V3z"
         data-original="#000000"
         class="active-path"
         data-old_color="#000000"
         fill="#009688"
         id="path2" />
      <path
         d="M24,11c0-0.6-0.4-1-1-1H1c-0.6,0-1,0.4-1,1v2c0,0.6,0.4,1,1,1h22c0.6,0,1-0.4,1-1V11z"
         data-original="#000000"
         class="active-path"
         data-old_color="#000000"
         fill="#009688"
         id="path4" />
      <path
         d="M24,19c0-0.6-0.4-1-1-1H1c-0.6,0-1,0.4-1,1v2c0,0.6,0.4,1,1,1h22c0.6,0,1-0.4,1-1V19z"
         data-original="#000000"
         class="active-path"
         data-old_color="#000000"
         fill="#009688"
         id="path6" />
    </g>
  </g>
  <path
     style="fill:#ff5555;stroke-width:0.76703107"
     d="M 16.811993,468.50817 C 8.4974708,467.10484 1.6422384,459.8694 0.59849302,451.39543 0.33130127,449.22616 0.22482723,436.57863 0.36188395,423.28981 0.63524493,396.78515 0.69854662,396.38696 5.509839,390.9072 c 1.3233316,-1.50719 4.041531,-3.55307 6.040443,-4.5464 l 3.634387,-1.80606 H 256.03243 496.88019 l 3.83516,2.03341 c 4.49833,2.38503 6.44918,4.37139 8.92605,9.08854 1.77976,3.38951 1.8167,3.89746 2.05242,28.21778 0.15873,16.37708 -0.054,26.18258 -0.62806,28.94778 -1.29883,6.25639 -4.83362,10.98298 -10.29609,13.76757 l -4.54787,2.31834 -237.83396,0.10578 c -130.80867,0.0582 -239.517806,-0.17842 -241.575847,-0.52577 z"
     id="path48"
     inkscape:connector-curvature="0"
     transform="scale(0.046875)" />
  <path
     style="fill:#ff5555;stroke-width:0.76703107"
     d="M 14.796187,297.54708 C 8.3473874,295.58544 3.1994353,290.45233 1.3701237,284.15972 0.3402954,280.61723 0.18618474,275.98284 0.38068917,254.40555 0.59764859,230.33723 0.70475398,228.64623 2.2181317,225.39579 c 1.8758259,-4.02891 5.524569,-7.79823 9.4323813,-9.74409 2.642149,-1.31563 13.627522,-1.38726 243.231367,-1.58598 223.47271,-0.19342 240.70497,-0.11723 243.8709,1.07828 4.67269,1.76448 9.64269,6.54531 11.31837,10.88758 1.23757,3.20699 1.38263,6.39942 1.38263,30.42897 0,29.89826 0.0498,29.56776 -5.3543,35.54943 -1.80971,2.00313 -4.31791,3.68094 -7.00659,4.6869 -4.18557,1.56602 -4.31693,1.56683 -243.28099,1.50094 -131.50124,-0.0363 -239.958313,-0.3291 -241.015713,-0.65074 z"
     id="path50"
     inkscape:connector-curvature="0"
     transform="scale(0.046875)" />
  <path
     style="fill:#ff5555;stroke-width:0.76703107"
     d="M 16.811993,127.17933 C 8.4974708,125.776 1.6422384,118.54057 0.59849302,110.0666 0.33130127,107.89732 0.22482723,95.249793 0.36188395,81.960979 0.63524493,55.456317 0.69854662,55.058125 5.509839,49.578366 6.8331706,48.071175 9.55137,46.025294 11.550282,45.031964 l 3.634387,-1.806055 H 256.03243 496.88019 l 3.83516,2.033411 c 4.49833,2.385032 6.44918,4.37139 8.92605,9.08854 1.77976,3.389506 1.8167,3.897458 2.05242,28.217773 0.15873,16.377081 -0.054,26.182587 -0.62806,28.947777 -1.29883,6.25639 -4.83362,10.98299 -10.29609,13.76757 l -4.54787,2.31835 -237.83396,0.10578 c -130.80867,0.0582 -239.517806,-0.17842 -241.575847,-0.52578 z"
     id="path52"
     inkscape:connector-curvature="0"
     transform="scale(0.046875)" />
  <path
     style="fill:#ffffff;stroke-width:0.76703107"
     d="M 13.978502,467.41851 C 9.5672765,465.8461 5.7282104,462.41934 3.1422727,457.74605 L 0.8411794,453.58754 0.887442,427.48035 c 0.0334764,-18.89162 0.3204756,-27.08659 1.038412,-29.65081 1.1483957,-4.10166 5.5255013,-9.05548 10.033196,-11.35514 2.993546,-1.52719 4.415873,-1.53614 244.1151,-1.53614 h 241.10401 l 4.17524,2.49498 c 5.63237,3.3657 8.91267,8.3949 9.57422,14.67869 0.27137,2.57769 0.37936,15.21422 0.23998,28.08116 -0.22234,20.52353 -0.42276,23.77096 -1.63327,26.46257 -1.83618,4.08286 -5.48381,7.77991 -9.90568,10.0399 l -3.61789,1.84909 -239.53097,-0.0337 C 54.797004,468.48263 16.479492,468.31001 13.978502,467.41851 Z"
     id="path822"
     inkscape:connector-curvature="0"
     transform="scale(0.046875)" />
  <path
     style="fill:#ffffff;stroke-width:0.76703107"
     d="M 130.85295,297.50159 C 22.089252,297.14045 13.711484,297.02057 11.469254,295.79329 7.8678754,293.82207 4.2432648,289.88945 2.4428539,285.99985 0.91292412,282.6946 0.84315466,281.34796 0.88527594,255.93657 l 0.0440966,-26.60302 2.26496266,-4.42879 c 1.3529703,-2.64552 3.5332372,-5.39612 5.4147645,-6.83121 3.0148593,-2.29951 3.5536663,-2.42415 12.5767143,-2.90932 14.567831,-0.7833 473.179576,-0.57325 476.591156,0.21829 3.86248,0.89616 7.96555,4.25679 10.8388,8.87755 l 2.30109,3.70063 v 28.05648 c 0,25.90358 -0.10972,28.26249 -1.42987,30.7411 -2.00127,3.75743 -4.95147,6.76213 -8.54153,8.69934 -3.03452,1.63744 -3.66034,1.66085 -57.14382,2.13734 -58.96606,0.52532 -133.29656,0.50315 -312.94869,-0.0934 z"
     id="path824"
     inkscape:connector-curvature="0"
     transform="scale(0.046875)" />
  <path
     style="fill:#ffffff;stroke-width:0.76703107"
     d="M 55.17369,296.78465 12.860281,296.34616 9.5534861,294.02135 C 7.7347487,292.7427 5.2030328,290.00921 3.9274507,287.94693 l -2.3192402,-3.74961 -0.2204851,-27.67494 -0.2204851,-27.67495 2.5215784,-4.1558 c 1.3868681,-2.28569 3.8475781,-5.21958 5.4682434,-6.51976 l 2.9466659,-2.36397 44.609262,-0.48732 c 55.78855,-0.60945 231.97026,-0.60038 351.86572,0.0181 l 90.95368,0.4692 2.86263,2.18403 c 1.57444,1.20122 4.0411,3.78995 5.48145,5.75274 l 2.61885,3.5687 0.019,27.32548 c 0.0104,15.02901 -0.20979,28.4695 -0.48944,29.86773 -0.69293,3.46468 -7.39335,10.24783 -11.38053,11.52104 -2.45327,0.78339 -42.9569,1.00136 -202.11269,1.08762 -109.47452,0.0594 -218.085607,-0.0894 -241.357982,-0.33059 z"
     id="path826"
     inkscape:connector-curvature="0"
     transform="scale(0.046875)" />
  <path
     style="fill:#ffffff;stroke-width:0.76703107"
     d="m 61.310062,296.78363 -48.449535,-0.43747 -3.3069182,-2.32481 c -1.8188049,-1.27865 -4.350576,-4.01214 -5.6261581,-6.07442 l -2.3192402,-3.74961 -0.2204851,-27.67494 -0.2204851,-27.67495 2.5215784,-4.1558 c 1.3868681,-2.28569 3.847496,-5.21958 5.4680617,-6.51976 l 2.9464826,-2.36397 44.609446,-0.48459 c 56.002691,-0.60835 232.450821,-0.60063 351.865901,0.0154 l 90.95368,0.4692 2.86263,2.18403 c 1.57444,1.20122 4.0411,3.78995 5.48145,5.75274 l 2.61885,3.5687 0.002,27.99663 c 0.002,25.45213 -0.12483,28.27549 -1.39516,31.06476 -1.75773,3.85945 -6.76782,8.42933 -10.59543,9.66448 -2.28701,0.738 -45.29805,0.97163 -195.83898,1.06378 -106.09958,0.065 -214.710615,-0.0788 -241.357858,-0.31939 z"
     id="path828"
     inkscape:connector-curvature="0"
     transform="scale(0.046875)" />
  <path
     style="fill:#ffffff;stroke-width:0.76703107"
     d="M 13.978502,126.08967 C 9.5672765,124.51726 5.7282104,121.0905 3.1422727,116.41721 L 0.8411794,112.2587 0.88744204,86.151506 C 0.92091842,67.259889 1.2079176,59.064919 1.925854,56.500702 3.0742497,52.399035 7.4513553,47.445215 11.95905,45.145561 c 2.993546,-1.527194 4.415873,-1.536144 244.1151,-1.536144 h 241.10401 l 4.17524,2.494978 c 5.63237,3.365702 8.91267,8.394909 9.57422,14.678697 0.27137,2.577691 0.37936,15.214213 0.23998,28.08116 -0.22234,20.523528 -0.42276,23.770958 -1.63327,26.462568 -1.83618,4.08286 -5.48381,7.77991 -9.90568,10.0399 l -3.61789,1.84909 -239.53097,-0.0337 C 54.797004,127.15379 16.479492,126.98117 13.978502,126.08967 Z"
     id="path830"
     inkscape:connector-curvature="0"
     transform="scale(0.046875)" />
  <path
     style="fill:#ffffff;stroke-width:0.76703107"
     d="M 21.841797 43.707031 C 21.424724 43.70188 20.98057 43.748465 20.607422 43.845703 C 19.861126 44.040178 20.28518 44.210932 21.550781 44.226562 C 22.816384 44.242195 23.427508 44.083155 22.908203 43.873047 C 22.648551 43.767994 22.25887 43.712182 21.841797 43.707031 z "
     transform="scale(0.046875)"
     id="path832" />
  <path
     style="fill:#ffffff;stroke-width:0.38351554"
     d="m 18.436634,126.95902 c -1.792935,-0.1189 7.699075,-0.16605 21.093355,-0.10477 13.394281,0.0613 24.784693,0.16486 25.312027,0.23018 1.74577,0.21622 -43.080564,0.0951 -46.405382,-0.12541 z"
     id="path835"
     inkscape:connector-curvature="0"
     transform="scale(0.046875)" />
  <path
     style="fill:#ffffff;stroke-width:0.38351554"
     d="m 22.463547,126.93459 c -0.284671,-0.46061 1.660719,-0.47177 3.835156,-0.022 1.425685,0.29489 1.352775,0.32042 -1.032034,0.36141 -1.411353,0.0243 -2.672757,-0.12848 -2.803122,-0.33941 z"
     id="path837"
     inkscape:connector-curvature="0"
     transform="scale(0.046875)" />
  <path
     style="fill:#ffffff;stroke-width:0.38351554"
     d="m 16.346516,298.03303 c -1.053852,-0.22567 76.787185,-0.17221 87.805844,0.0603 2.74214,0.0579 -15.637847,0.12247 -40.844406,0.14358 -25.20656,0.0211 -46.339207,-0.0707 -46.961438,-0.20389 z"
     id="path839"
     inkscape:connector-curvature="0"
     transform="scale(0.046875)" />
  <path
     style="fill:#ffffff;stroke-width:0.38351554"
     d="m 18.340755,298.11205 c 0.263667,-0.1064 0.695122,-0.1064 0.958789,0 0.263667,0.10639 0.04794,0.19344 -0.479394,0.19344 -0.527334,0 -0.743062,-0.0871 -0.479395,-0.19344 z"
     id="path841"
     inkscape:connector-curvature="0"
     transform="scale(0.046875)" />
  <path
     style="fill:#ffffff;stroke-width:0.38351554"
     d="m 16.236693,297.70732 c 0.582968,-0.0881 1.445878,-0.0858 1.917578,0.005 0.4717,0.091 -0.0053,0.16315 -1.059941,0.16027 -1.054668,-0.003 -1.440605,-0.0774 -0.857637,-0.16551 z"
     id="path843"
     inkscape:connector-curvature="0"
     transform="scale(0.046875)" />
  <path
     style="fill:#ffffff;stroke-width:0.38351554"
     d="m 17.573724,296.57798 c 0.263667,-0.10639 0.695122,-0.10639 0.958789,0 0.263667,0.1064 0.04794,0.19344 -0.479394,0.19344 -0.527334,0 -0.743062,-0.087 -0.479395,-0.19344 z"
     id="path845"
     inkscape:connector-curvature="0"
     transform="scale(0.046875)" />
</svg>
